<?xml version="1.0" encoding="utf-8"?>
<!-- Generator: Adobe Illustrator 28.1.0, SVG Export Plug-In . SVG Version: 6.00 Build 0)  -->
<svg version="1.1" id="图层_1" xmlns="http://www.w3.org/2000/svg" xmlns:xlink="http://www.w3.org/1999/xlink" x="0px" y="0px"
	 viewBox="0 0 6803.1 3826.8" style="enable-background:new 0 0 6803.1 3826.8;" xml:space="preserve">
<g>
	<polygon style="fill:#26637B;" points="3346.6,1904.8 3368.8,1904.8 3398.1,1939.6 3398.1,1904.8 3420.5,1904.8 3420.5,1984.8 
		3398.1,1984.8 3369,1951.6 3369,1984.8 3346.6,1984.8 	"/>
	<path style="fill:#26637B;" d="M3466.6,1955.5v-12.2h36.8v29c-7,4.8-13.3,8.1-18.7,9.9c-5.4,1.7-11.9,2.6-19.3,2.6
		c-9.2,0-16.6-1.6-22.4-4.7c-5.8-3.1-10.2-7.8-13.4-14c-3.2-6.2-4.8-13.3-4.8-21.3c0-8.5,1.7-15.8,5.2-22c3.5-6.2,8.6-11,15.3-14.2
		c5.2-2.5,12.3-3.8,21.1-3.8c8.6,0,14.9,0.8,19.2,2.4c4.2,1.5,7.7,4,10.5,7.2c2.8,3.3,4.9,7.4,6.3,12.4l-23.1,4.1
		c-0.9-2.9-2.6-5.2-4.8-6.7c-2.3-1.6-5.1-2.3-8.7-2.3c-5.2,0-9.4,1.8-12.5,5.4c-3.1,3.6-4.6,9.4-4.6,17.2c0,8.3,1.6,14.3,4.7,17.9
		c3.1,3.6,7.5,5.4,13.1,5.4c2.7,0,5.2-0.4,7.7-1.2c2.4-0.8,5.2-2.1,8.3-3.9v-7.2H3466.6"/>
	<path style="fill:#26637B;" d="M3528,1904.8l-24.2,80h29.5c0,0,8.3-26.7,9.2-29.7h28.3l7.9-20.8h-30.2c0.8-2.9,1.8-6.4,2.3-8.3h35
		l7.8-21.2H3528z M3586.8,1909.5c-1.3,3.6-3.7,10-4.4,12h-35.3l-4.9,17.5h29.6c-1.4,3.6-3.7,9.7-4.4,11.6H3539
		c0,0-8.3,26.7-9.2,29.7h-19.9c1.6-5.4,20.5-67.7,21.4-70.7H3586.8z"/>
	<path style="fill:#26637B;" d="M3314.3,1984.8h28.6v-80h-28.6V1984.8z M3338.2,1980.2h-19.3v-70.8h19.3V1980.2z"/>
	<polygon style="fill:#26637B;" points="3627.9,1984.8 3652.7,1984.8 3623.9,1904.9 3597.5,1904.9 3568.7,1984.8 3593.1,1984.8 
		3610.5,1931.9 	"/>
	<path style="fill:#26637B;" d="M3688.8,1888.1c3.6,5.2-1.3,15.2-11.3,23.7l0,0c-1.6,1.4-3.4,2.8-5.2,4c-6.5,4.5-13.1,7.4-18.7,8.6
		h0c-6,1.2-10.9,0.4-13.1-2.7c-4.2-6.1,3.2-18.5,16.5-27.8C3670.4,1884.7,3684.6,1882.1,3688.8,1888.1 M3676.7,1904.8h-23.9v80h23.9
		V1904.8z"/>
	<path style="fill:#26637B;" d="M3268.9,1852.9c-5.8-9.3-18.7-10.8-26.4-3l-21.1,21.5l31.1,50.1l5.6-5.6l42.5,68.9h13.8v-58.3
		L3268.9,1852.9z"/>
	<path style="fill:#004646;" d="M3273.9,1971.2l-49.8-80.4c-4.2-6.9-13.8-7.9-19.4-2.2l-94.4,96.2h70.8l34.4-35.1l21.7,35.1h39.7
		c5.1,0,11.2-0.9,10.9-6.3C3281.3,1981,3277.6,1976.6,3273.9,1971.2z"/>
</g>
</svg>
