<?xml version="1.0" encoding="utf-8"?>
<!-- Generator: Adobe Illustrator 28.1.0, SVG Export Plug-In . SVG Version: 6.00 Build 0)  -->
<svg version="1.1" id="图层_1" xmlns="http://www.w3.org/2000/svg" xmlns:xlink="http://www.w3.org/1999/xlink" x="0px" y="0px"
	 viewBox="0 0 579.7 139.9" style="enable-background:new 0 0 579.7 139.9;" xml:space="preserve">
<g>
	<polygon style="fill:#26637B;" points="236.3,59.9 258.5,59.9 287.8,94.7 287.8,59.9 310.2,59.9 310.2,139.9 287.8,139.9 
		258.7,106.7 258.7,139.9 236.3,139.9 	"/>
	<path style="fill:#26637B;" d="M356.3,110.6V98.4h36.8v29c-7,4.8-13.3,8.1-18.7,9.9c-5.4,1.7-11.9,2.6-19.3,2.6
		c-9.2,0-16.6-1.6-22.4-4.7c-5.8-3.1-10.2-7.8-13.4-14s-4.8-13.3-4.8-21.3c0-8.5,1.7-15.8,5.2-22s8.6-11,15.3-14.2
		c5.2-2.5,12.3-3.8,21.1-3.8c8.6,0,14.9,0.8,19.2,2.4c4.2,1.5,7.7,4,10.5,7.2c2.8,3.3,4.9,7.4,6.3,12.4L369,86
		c-0.9-2.9-2.6-5.2-4.8-6.7c-2.3-1.6-5.1-2.3-8.7-2.3c-5.2,0-9.4,1.8-12.5,5.4s-4.6,9.4-4.6,17.2c0,8.3,1.6,14.3,4.7,17.9
		c3.1,3.6,7.5,5.4,13.1,5.4c2.7,0,5.2-0.4,7.7-1.2c2.4-0.8,5.2-2.1,8.3-3.9v-7.2L356.3,110.6"/>
	<path style="fill:#26637B;" d="M417.7,59.9l-24.2,80H423c0,0,8.3-26.7,9.2-29.7h28.3l7.9-20.8h-30.2c0.8-2.9,1.8-6.4,2.3-8.3h35
		l7.8-21.2H417.7z M476.5,64.6c-1.3,3.6-3.7,10-4.4,12h-35.3l-4.9,17.5h29.6c-1.4,3.6-3.7,9.7-4.4,11.6h-28.4c0,0-8.3,26.7-9.2,29.7
		h-19.9c1.6-5.4,20.5-67.7,21.4-70.7L476.5,64.6L476.5,64.6z"/>
	<path style="fill:#26637B;" d="M204,139.9h28.6v-80H204V139.9z M227.9,135.3h-19.3V64.5h19.3V135.3z"/>
	<polygon style="fill:#26637B;" points="517.6,139.9 542.4,139.9 513.6,60 487.2,60 458.4,139.9 482.8,139.9 500.2,87 	"/>
	<path style="fill:#26637B;" d="M578.5,43.2c3.6,5.2-1.3,15.2-11.3,23.7l0,0c-1.6,1.4-3.4,2.8-5.2,4c-6.5,4.5-13.1,7.4-18.7,8.6l0,0
		c-6,1.2-10.9,0.4-13.1-2.7c-4.2-6.1,3.2-18.5,16.5-27.8C560.1,39.8,574.3,37.2,578.5,43.2 M566.4,59.9h-23.9v80h23.9V59.9z"/>
	<path style="fill:#26637B;" d="M158.6,8c-5.8-9.3-18.7-10.8-26.4-3l-21.1,21.5l31.1,50.1l5.6-5.6l42.5,68.9h13.8V81.6L158.6,8z"/>
	<path style="fill:#004646;" d="M163.6,126.3l-49.8-80.4C109.6,39,100,38,94.4,43.7L0,139.9h70.8l34.4-35.1l21.7,35.1h39.7
		c5.1,0,11.2-0.9,10.9-6.3C171,136.1,167.3,131.7,163.6,126.3z"/>
</g>
</svg>
